General
Unique ID : 214094497344726307020244259917990909515 (0xA11119AFA6B34380B7AB37FD9066D64B)
Complete name : Sword.Art.Online.S02.1080p.BluRay.AC-3.x264-Hi10P-USS/[USS]_Sword_Art_Online_II_(2014)_-_01_[BD_1080p_H264_AC3]_[5B95EC05].mkv
Format : Matroska
Format version : Version 4 / Version 2
File size : 1.07 GiB
Duration : 23mn 41s
Overall bit rate : 6 457 Kbps
Encoded date : UTC 2016-01-14 13:23:15
Writing application : mkvmerge v6.0.0 ('Coming Up For Air') built on Jan 20 2013 09:52:00
Writing library : libebml v1.3.0 + libmatroska v1.4.0
Attachment : Yes / Yes

Video
ID : 1
Format : AVC
Format/Info : Advanced Video Codec
Format profile : High 10@L4.1
Format settings, CABAC : Yes
Format settings, ReFrames : 4 frames
Codec ID : V_MPEG4/ISO/AVC
Duration : 23mn 41s
Bit rate : 5 432 Kbps
Width : 1 920 pixels
Height : 1 080 pixels
Display aspect ratio : 16:9
Frame rate mode : Constant
Frame rate : 23.976 fps
Color space : YUV
Chroma subsampling : 4:2:0
Bit depth : 10 bits
Scan type : Progressive
Bits/(Pixel*Frame) : 0.109
Stream size : 921 MiB (84%)
Writing library : x264 core 148 r2638 7599210
Encoding settings : Shujinowski
Language : Japanese
Default : Yes
Forced : No

Audio #1
ID : 2
Format : AC-3
Format/Info : Audio Coding 3
Mode extension : CM (complete main)
Format settings, Endianness : Big
Codec ID : A_AC3
Duration : 23mn 41s
Bit rate mode : Constant
Bit rate : 448 Kbps
Channel(s) : 2 channels
Channel positions : Front: L R
Sampling rate : 48.0 KHz
Bit depth : 16 bits
Compression mode : Lossy
Stream size : 75.9 MiB (7%)
Language : English
Default : Yes
Forced : No

Audio #2
ID : 3
Format : AC-3
Format/Info : Audio Coding 3
Mode extension : CM (complete main)
Format settings, Endianness : Big
Codec ID : A_AC3
Duration : 23mn 41s
Bit rate mode : Constant
Bit rate : 448 Kbps
Channel(s) : 2 channels
Channel positions : Front: L R
Sampling rate : 48.0 KHz
Bit depth : 16 bits
Compression mode : Lossy
Stream size : 75.9 MiB (7%)
Language : Japanese
Default : No
Forced : No

Text #1
ID : 4
Format : ASS
Codec ID : S_TEXT/ASS
Codec ID/Info : Advanced Sub Station Alpha
Compression mode : Lossless
Title : English Signs & Songs
Language : English
Default : Yes
Forced : No

Text #2
ID : 5
Format : ASS
Codec ID : S_TEXT/ASS
Codec ID/Info : Advanced Sub Station Alpha
Compression mode : Lossless
Title : English Subtitles
Language : English
Default : No
Forced : No

Menu
00:00:00.000 : en:Chapter 01
00:03:21.993 : en:Chapter 02
00:08:27.965 : en:Chapter 03
00:22:04.906 : en:Chapter 04
00:23:34.912 : en:Chapter 05
